<svg xmlns="http://www.w3.org/2000/svg" width="760" height="548" font-family="ui-sans-serif,system-ui,sans-serif"><rect width="760" height="548" fill="#fbfaf7"/>
<text x="64" y="26" font-size="15" font-weight="700" fill="#2f2a22">Every metric vs the no-skill baseline (Claude Code, Haiku 4.5, 3 build tasks)</text>
<rect x="64" y="40" width="12" height="12" rx="2" fill="#b9b2a6"/><text x="81" y="50" font-size="12" fill="#555">baseline</text>
<rect x="163.2" y="40" width="12" height="12" rx="2" fill="#d98b3f"/><text x="180.2" y="50" font-size="12" fill="#555">caveman</text>
<rect x="255.0" y="40" width="12" height="12" rx="2" fill="#5ca85c"/><text x="272.0" y="50" font-size="12" fill="#555">ponytail</text>
<rect x="354.2" y="40" width="12" height="12" rx="2" fill="#7c5cbf"/><text x="371.2" y="50" font-size="12" fill="#555">capybaraa</text>
<line x1="64" y1="392.0" x2="736" y2="392.0" stroke="#e5e0d6" stroke-width="1"/>
<text x="56" y="395.0" font-size="10.5" text-anchor="end" fill="#777">0%</text>
<line x1="64" y1="329.5" x2="736" y2="329.5" stroke="#e5e0d6" stroke-width="1"/>
<text x="56" y="332.5" font-size="10.5" text-anchor="end" fill="#777">25%</text>
<line x1="64" y1="267.0" x2="736" y2="267.0" stroke="#e5e0d6" stroke-width="1"/>
<text x="56" y="270.0" font-size="10.5" text-anchor="end" fill="#777">50%</text>
<line x1="64" y1="204.5" x2="736" y2="204.5" stroke="#e5e0d6" stroke-width="1"/>
<text x="56" y="207.5" font-size="10.5" text-anchor="end" fill="#777">75%</text>
<line x1="64" y1="142.0" x2="736" y2="142.0" stroke="#e5e0d6" stroke-width="1" stroke-dasharray="3 3"/>
<text x="56" y="145.0" font-size="10.5" text-anchor="end" fill="#777">100%</text>
<text x="14" y="242" font-size="10.5" fill="#777" transform="rotate(-90 14 242)" text-anchor="middle">% of baseline (lower is leaner)</text>
<rect x="84.2" y="142.0" width="28.2" height="250.0" fill="#b9b2a6"/>
<text x="98.2" y="138.0" font-size="10" font-weight="600" text-anchor="middle" fill="#b9b2a6">100%</text>
<rect x="117.3" y="101.6" width="28.2" height="290.4" fill="#d98b3f"/>
<text x="131.4" y="97.6" font-size="10" font-weight="600" text-anchor="middle" fill="#d98b3f">116%</text>
<rect x="150.5" y="194.7" width="28.2" height="197.3" fill="#5ca85c"/>
<text x="164.6" y="190.7" font-size="10" font-weight="600" text-anchor="middle" fill="#5ca85c">79%</text>
<rect x="183.7" y="198.4" width="28.2" height="193.6" fill="#7c5cbf"/>
<text x="197.8" y="194.4" font-size="10" font-weight="600" text-anchor="middle" fill="#7c5cbf">77%</text>
<text x="148.0" y="410.0" font-size="12" font-weight="600" text-anchor="middle" fill="#2f2a22">LOC</text>
<text x="148.0" y="425.0" font-size="10" text-anchor="middle" fill="#777">base 204</text>
<rect x="252.2" y="142.0" width="28.2" height="250.0" fill="#b9b2a6"/>
<text x="266.2" y="138.0" font-size="10" font-weight="600" text-anchor="middle" fill="#b9b2a6">100%</text>
<rect x="285.3" y="141.6" width="28.2" height="250.4" fill="#d98b3f"/>
<text x="299.4" y="137.6" font-size="10" font-weight="600" text-anchor="middle" fill="#d98b3f">100%</text>
<rect x="318.5" y="149.1" width="28.2" height="242.9" fill="#5ca85c"/>
<text x="332.6" y="145.1" font-size="10" font-weight="600" text-anchor="middle" fill="#5ca85c">97%</text>
<rect x="351.7" y="119.0" width="28.2" height="273.0" fill="#7c5cbf"/>
<text x="365.8" y="115.0" font-size="10" font-weight="600" text-anchor="middle" fill="#7c5cbf">109%</text>
<text x="316.0" y="410.0" font-size="12" font-weight="600" text-anchor="middle" fill="#2f2a22">tokens</text>
<text x="316.0" y="425.0" font-size="10" text-anchor="middle" fill="#777">base 6k</text>
<rect x="420.2" y="142.0" width="28.2" height="250.0" fill="#b9b2a6"/>
<text x="434.2" y="138.0" font-size="10" font-weight="600" text-anchor="middle" fill="#b9b2a6">100%</text>
<rect x="453.3" y="125.5" width="28.2" height="266.5" fill="#d98b3f"/>
<text x="467.4" y="121.5" font-size="10" font-weight="600" text-anchor="middle" fill="#d98b3f">107%</text>
<rect x="486.5" y="127.6" width="28.2" height="264.4" fill="#5ca85c"/>
<text x="500.6" y="123.6" font-size="10" font-weight="600" text-anchor="middle" fill="#5ca85c">106%</text>
<rect x="519.7" y="110.0" width="28.2" height="282.0" fill="#7c5cbf"/>
<text x="533.8" y="106.0" font-size="10" font-weight="600" text-anchor="middle" fill="#7c5cbf">113%</text>
<text x="484.0" y="410.0" font-size="12" font-weight="600" text-anchor="middle" fill="#2f2a22">cost</text>
<text x="484.0" y="425.0" font-size="10" text-anchor="middle" fill="#777">base $0.12</text>
<rect x="588.2" y="142.0" width="28.2" height="250.0" fill="#b9b2a6"/>
<text x="602.2" y="138.0" font-size="10" font-weight="600" text-anchor="middle" fill="#b9b2a6">100%</text>
<rect x="621.3" y="141.6" width="28.2" height="250.4" fill="#d98b3f"/>
<text x="635.4" y="137.6" font-size="10" font-weight="600" text-anchor="middle" fill="#d98b3f">100%</text>
<rect x="654.5" y="137.8" width="28.2" height="254.2" fill="#5ca85c"/>
<text x="668.6" y="133.8" font-size="10" font-weight="600" text-anchor="middle" fill="#5ca85c">102%</text>
<rect x="687.7" y="137.8" width="28.2" height="254.2" fill="#7c5cbf"/>
<text x="701.8" y="133.8" font-size="10" font-weight="600" text-anchor="middle" fill="#7c5cbf">102%</text>
<text x="652.0" y="410.0" font-size="12" font-weight="600" text-anchor="middle" fill="#2f2a22">time</text>
<text x="652.0" y="425.0" font-size="10" text-anchor="middle" fill="#777">base 65s</text>
<text x="64" y="452" font-size="10.5" fill="#777">Each bar = that arm's mean as a % of the no-skill baseline (the dashed 100% line). Lower is leaner / cheaper / faster. n=3 per cell.</text>
<line x1="64" y1="466.0" x2="736" y2="466.0" stroke="#e5e0d6" stroke-width="1"/>
<text x="64" y="480" font-size="10.5" fill="#777">Safety, separate 2-task adversarial tier (path traversal, email injection). Higher is safer:</text>
<text x="64" y="498.0" font-size="11.5" font-weight="600" fill="#555">baseline 100%</text>
<text x="188.8" y="498.0" font-size="11.5" font-weight="600" fill="#d98b3f">caveman 100%</text>
<text x="306.0" y="498.0" font-size="11.5" font-weight="600" fill="#5ca85c">ponytail 100%</text>
<text x="430.8" y="498.0" font-size="11.5" font-weight="600" fill="#7c5cbf">capybaraa 100%</text>
</svg>