<svg xmlns="http://www.w3.org/2000/svg" width="720" height="386" font-family="ui-sans-serif,system-ui,sans-serif"><rect width="720" height="386" fill="#fbfaf7"/>
<text x="188" y="26" font-size="15" font-weight="700" fill="#3a3226">Same feature, fewer lines (median LOC, lower is leaner)</text>
<rect x="188" y="34" width="12" height="12" fill="#c9c2b6"/><text x="205" y="45" font-size="12" fill="#555">baseline</text>
<rect x="283" y="34" width="12" height="12" fill="#8a6d3b"/><text x="300" y="45" font-size="12" fill="#555">capybaraa</text>
<text x="178" y="78" font-size="11.5" text-anchor="end" fill="#3a3226">feature: star rating</text>
<rect x="188" y="62" width="197" height="11" fill="#c9c2b6"/><text x="390" y="72" font-size="10" fill="#888">38</text>
<rect x="188" y="75" width="119" height="11" fill="#8a6d3b"/><text x="312" y="85" font-size="10" fill="#888">23</text>
<text x="662" y="78" font-size="11" font-weight="600" fill="#8a6d3b">-39%</text>
<text x="178" y="108" font-size="11.5" text-anchor="end" fill="#3a3226">feature: CSV export</text>
<rect x="188" y="92" width="103" height="11" fill="#c9c2b6"/><text x="296" y="102" font-size="10" fill="#888">20</text>
<rect x="188" y="105" width="77" height="11" fill="#8a6d3b"/><text x="270" y="115" font-size="10" fill="#888">15</text>
<text x="662" y="108" font-size="11" font-weight="600" fill="#8a6d3b">-25%</text>
<text x="178" y="138" font-size="11.5" text-anchor="end" fill="#3a3226">feature: Cmd-K palette</text>
<rect x="188" y="122" width="462" height="11" fill="#c9c2b6"/><text x="655" y="132" font-size="10" fill="#888">89</text>
<rect x="188" y="135" width="404" height="11" fill="#8a6d3b"/><text x="597" y="145" font-size="10" fill="#888">78</text>
<text x="662" y="138" font-size="11" font-weight="600" fill="#8a6d3b">-12%</text>
<text x="178" y="168" font-size="11.5" text-anchor="end" fill="#3a3226">rewrite CSV parser</text>
<rect x="188" y="152" width="88" height="11" fill="#c9c2b6"/><text x="281" y="162" font-size="10" fill="#888">17</text>
<rect x="188" y="165" width="83" height="11" fill="#8a6d3b"/><text x="276" y="175" font-size="10" fill="#888">16</text>
<text x="662" y="168" font-size="11" font-weight="600" fill="#8a6d3b">-6%</text>
<text x="178" y="198" font-size="11.5" text-anchor="end" fill="#3a3226">fix failing test</text>
<rect x="188" y="182" width="20" height="11" fill="#c9c2b6"/><text x="213" y="192" font-size="10" fill="#888">4</text>
<rect x="188" y="195" width="10" height="11" fill="#8a6d3b"/><text x="203" y="205" font-size="10" fill="#888">2</text>
<text x="662" y="198" font-size="11" font-weight="600" fill="#8a6d3b">-50%</text>
<text x="188" y="216" font-size="10.5" fill="#777">every one scored fully complete (3/3) by the judge - leaner, not less.</text>
<text x="188" y="266" font-size="15" font-weight="700" fill="#3a3226">Asks before coding (CLARIFY judge 0-3, higher is better)</text>
<text x="178" y="294" font-size="11.5" text-anchor="end" fill="#3a3226">baseline</text>
<rect x="188" y="282" width="462" height="16" fill="#efece5"/><rect x="188" y="282" width="2" height="16" fill="#c9c2b6"/><text x="196" y="294" font-size="11" fill="#555">0 / 3</text>
<text x="178" y="320" font-size="11.5" text-anchor="end" fill="#3a3226">capybaraa</text>
<rect x="188" y="308" width="462" height="16" fill="#efece5"/><rect x="188" y="308" width="231" height="16" fill="#8a6d3b"/><text x="425" y="320" font-size="11" fill="#555">1.5 / 3</text>
<text x="188" y="350" font-size="10.5" fill="#777">baseline built on assumptions (a 238-line SettingsManager); capybaraa wrote 0 lines, asked first.</text>
<text x="188" y="366" font-size="10.5" fill="#777">the 9 deterministic gates (correct, safe, reuse, native, optimal, economy, sync, hygiene, done): 100% both.</text>
</svg>