<svg xmlns="http://www.w3.org/2000/svg" width="720" height="360" viewBox="0 0 720 360" font-family="-apple-system,Segoe UI,Helvetica,Arial,sans-serif">
  <rect width="720" height="360" fill="#ffffff"/>
  <text x="40" y="32" font-size="16" font-weight="700" fill="#3a2f1c">Median lines of code per task — lower is leaner</text>
  <text x="40" y="50" font-size="12" fill="#8a7a5c">Sonnet 4.6, n=2 · all arms 100% correct, safe, gate-passing</text>

  <!-- legend -->
  <rect x="470" y="22" width="13" height="13" fill="#b6b1a8"/><text x="488" y="33" font-size="12" fill="#444">baseline</text>
  <rect x="556" y="22" width="13" height="13" fill="#c8a165"/><text x="574" y="33" font-size="12" fill="#444">capybaraa</text>
  <rect x="650" y="22" width="13" height="13" fill="#7a9b76"/><text x="668" y="33" font-size="12" fill="#444">ponytail</text>

  <!-- baseline axis -->
  <line x1="60" y1="300" x2="700" y2="300" stroke="#ddd6c8" stroke-width="1"/>

  <!-- group 1: lean-native (all tie at 1) -->
  <rect x="80"  y="295" width="50" height="5"   fill="#b6b1a8"/><text x="105" y="290" font-size="11" fill="#666" text-anchor="middle">1</text>
  <rect x="136" y="295" width="50" height="5"   fill="#c8a165"/><text x="161" y="290" font-size="11" fill="#666" text-anchor="middle">1</text>
  <rect x="192" y="295" width="50" height="5"   fill="#7a9b76"/><text x="217" y="290" font-size="11" fill="#666" text-anchor="middle">1</text>
  <text x="161" y="320" font-size="12" fill="#3a2f1c" text-anchor="middle">lean-native</text>
  <text x="161" y="336" font-size="10" fill="#999" text-anchor="middle">irreducible — all tie</text>

  <!-- group 2: hygiene-replace -->
  <rect x="300" y="177" width="50" height="123" fill="#b6b1a8"/><text x="325" y="172" font-size="11" fill="#666" text-anchor="middle">23.5</text>
  <rect x="356" y="217" width="50" height="83"  fill="#c8a165"/><text x="381" y="212" font-size="11" fill="#666" text-anchor="middle">16.0</text>
  <rect x="412" y="253" width="50" height="47"  fill="#7a9b76"/><text x="437" y="248" font-size="11" fill="#666" text-anchor="middle">9.0</text>
  <text x="381" y="320" font-size="12" fill="#3a2f1c" text-anchor="middle">hygiene-replace</text>
  <text x="381" y="336" font-size="10" fill="#999" text-anchor="middle">capybaraa −32% vs baseline</text>

  <!-- group 3: feat-rating -->
  <rect x="520" y="60"  width="50" height="240" fill="#b6b1a8"/><text x="545" y="55" font-size="11" fill="#666" text-anchor="middle">46.0</text>
  <rect x="576" y="167" width="50" height="133" fill="#c8a165"/><text x="601" y="162" font-size="11" fill="#666" text-anchor="middle">25.5</text>
  <rect x="632" y="209" width="50" height="91"  fill="#7a9b76"/><text x="657" y="204" font-size="11" fill="#666" text-anchor="middle">17.5</text>
  <text x="601" y="320" font-size="12" fill="#3a2f1c" text-anchor="middle">feat-rating</text>
  <text x="601" y="336" font-size="10" fill="#999" text-anchor="middle">capybaraa −45% vs baseline</text>
</svg>
